<?xml version="1.0" encoding="utf-8"?>
<!-- Generator: Adobe Illustrator 19.1.0, SVG Export Plug-In . SVG Version: 6.00 Build 0)  -->
<svg version="1.1" id="Layer_1" xmlns="http://www.w3.org/2000/svg" xmlns:xlink="http://www.w3.org/1999/xlink" x="0px" y="0px"
	 viewBox="0 0 841.9 595.3" style="enable-background:new 0 0 841.9 595.3;" xml:space="preserve">
<style type="text/css">
	.st0{fill:#FFFFFF;}
</style>
<g>
	<path class="st0" d="M196.6,140.1c-0.1,0.2-0.1,0.3-0.2,0.5c-0.5,1.7-0.7,3.5-0.7,5.3c-4.9,2.4-22.2,9.8-10.2,27.5
		c-2.8-10.4,10.2-13.7,14.1-14.4c-0.2,2.2-0.1,4.6,0.4,7.2c-4.8,4.9-15.1,20.6,2.3,29.3c-5.8-9.4,3.6-14,5.1-15.5
		c19.7,20.3,31.6-11.1,53.1,6.5c1.4,1.3,2.7,2.7,4,4.4c15.4,19.8,32.6,25.5,51,34.2c-11.4-8.9-14-26.9-14.5-36.6
		c5.8,2.6,15.2,5.7,27.2,5.4c-16.8-10.3-20-23.1-21.7-41.1c-10.2-3.2-17.5-3.8-35.9-16.3c-0.1-0.1-0.1-0.1-0.2-0.2
		c-10.6-8.7-25-25.8-39-26.7c-1.9-0.1-3.8,0-5.5,0.3c-8.2-3.8-26.8-10.4-32.3,10.5c6.6-7.2,14.7-3.3,17.7-1.4
		c-1.7,2.3-2.8,4.8-3.2,7.4h-0.2c-15.5-1.5-30.6,3.6-30.3,19.3C180.3,141.9,186,137.1,196.6,140.1z"/>
	<path class="st0" d="M617.4,257.1c-7.9,14.5-20.2,48.8,14.2,93.2c0-50,20.5-63,28.1-73.5c8.3-11.6,4.3-21.7,1.2-27.5
		c-4.1-7.5-1.5-13.3-0.2-19.9c3.2-16.1,0.7-59-39.7-61.2c-41.8-2.3-85.3,43-54.8,184.9c5.7,26.7,2.6,68.7-50.4,68.7
		c-70.8,0-75.1-87.5-50.1-120.1c-3.6,3.2-20.8,11.5-54,10.3c3.2-4.5,9.7-14.6,11.1-19c-30,18.1-57.5,0.3-61.9-5.3
		c7-3.5,14.5-7.5,18.8-21.3c-6.7,5.7-30.1,11.3-52,4.4c-4.7-1.5-9.2-3.5-13.6-6.2c14.4-6.6,21.7-16.9,23.5-21.2
		c-4.6,1.7-29.9,7.6-61.9,7c-15.9-0.1-26.9-5.8-41.1-8.9c-8.9-1.9-16.3-0.4-21.6,3.9c-8.6,0.1-31.7,2.6-27.5,24
		c3-11.2,15.1-10.2,19.5-9.5c0,0.2-0.1,0.3-0.1,0.4c-3,2.3-5.4,5.9-6.9,9.9c-5.9,2.6-27.8,13.5-15.3,31.4
		c0.4-9.8,9.1-13.9,14.7-15.3c0.6,1.7,1.5,3.6,2.7,5.4c-4.4,6-12.8,19.7,3.5,29.2c-2.9-8.4,2.2-16.1,7.6-20.6
		c0.3,2.1,0.9,4.3,1.8,6.4c-1.9,5.1-5.8,27.6,14.7,27.1c-7.4-3.5-4-13.2-2.6-16.4c1.6,0.4,3.4,0.7,5.3,0.7
		c25.2,0,12.7-16.2,86.3-28.4c2-0.3,3.8,0,5.4,0.1c-19,77.1,42.4,91.5,42.4,122.4c0,10.8-8,19.2-22.7,19.2H202.8v33.1l451.5,0v-33.1
		h-74.8c24.8-30,24-65.5,17-87.6c-40-125.6,3.2-159.1,24.6-155.9c22.5,3.3,25.5,27.2,13.1,45.1C624.9,246.3,623.8,245.2,617.4,257.1
		z"/>
	<path class="st0" d="M388.3,538l-2.9-1.3l2.8-1.6c5.3-3.2,10.7-7.4,10.7-17.4c0-11-9.6-21.4-27.8-21.4c-18.3,0-30.5,8.5-30.5,22.2
		c0,9.2,3.9,13.7,9.8,17.7l2.4,1.6l-2.6,1.5c-9.2,4.5-13.8,10.2-13.8,18.7c0,14.8,12.2,23.9,32,23.9c20.9,0,33.9-9.7,33.9-25.3
		C402.2,547.8,397.7,542.4,388.3,538z M369.2,507.2c7.2,0,12.5,5.5,12.5,13.1c0,5.6-3,8.9-6.3,11.7l-1,0.8l-1.6-0.5
		c-6.7-2.1-15.1-4.8-15.1-14.6C357.6,512.5,361.9,507.2,369.2,507.2z M370,571.3c-8,0-16-4.5-16-14.7c0-5.7,4.6-11.6,8.7-13.3l3,0.4
		c7.3,2.2,18.6,5.5,18.6,15.7C384.3,566.4,378.4,571.3,370,571.3z"/>
	<path class="st0" d="M462.8,496.4c-21,0-33.1,15.3-33.1,43.2c0,27.8,11.5,42.4,32.3,42.4c21.1,0,32.7-14.6,32.7-42.4
		C494.6,511.3,483.3,496.4,462.8,496.4z M462.5,570.3c-12.1,0-14.5-12.6-14.5-31.5c0-13.7,0-30.7,13.9-30.7
		c12.8,0,14.6,15.7,14.6,32.7C476.4,554,476.4,570.3,462.5,570.3z"/>
	<path class="st0" d="M543.2,525.2v-16h33.5l1.5-11.5h-11.5h-0.7h-1.3h-36.1v40.4c30.2-7.8,36.3,9.8,35.9,17.1
		c-0.8,13.7-14.9,22.6-38.5,12.9l-4.1,8.8c6.5,3.2,14.4,5,23.1,5c28,0,37-15.8,37-29.2C582,541,572.7,523.3,543.2,525.2z"/>
	<path class="st0" d="M294,569.3v-73.2h-4.5l-24.2,20.2v2.4h12.2l0,50.6c0,5.4-1.2,4.3-11.4,8l0,3.6c0,0,38.8,0,39.1,0
		c0.2,0,0.2,0,0.2,0l0-3.6C295.6,573.8,294,574.7,294,569.3z"/>
	<path class="st0" d="M351.9,193.4c4.2,0.8,1.5,3-0.2,4c-15.5,8.5-27.9,7.5-36.8,4.3c3.6,20,24.4,28.6,38.5,18.1
		c13.3-9.6,22.1-8.9,25.8-7.6c2.7,1,4,3.3-0.1,3.7c-8.7,1-20.8,6.4-25.6,21.5c-5.2,16.1-12.9,22.4-17.1,23.4
		c8.6,2.5,29.7,2,41.4-4.5c8.1-4.5,15.9-18.5,26.4-18c1.6,0.2,2.6,0.4,0.2,2.8c-1.2,1.2-9.5,9.1-12.2,21.1
		c-0.8,3.4-4.2,19.3-12.5,24.3c24.1,8.7,53.9-5.3,56.7-39.9c0.2-2.8,2.2-4.3,3.4,0c7,24.9-7.4,50.3-9.2,52.6
		c42.4-4.7,43.6-33.4,43.1-39.2c0.3-6-7.7-31.5,0.7-38.9c2.2-1.9,4.1-1.5,3.4,2.4c-1.1,6.7,4.1,17.2,6.8,24.3
		c7.1,18.5-1.1,33.8-7.8,41.6c4.5-2.2,38.4-16.5,32.3-46.5c-1.3-6.4-9.9-19.2-9.7-32.9c0.1-7,4.4-14.7,6.7-16.4
		c2.4-1.8,4.1-0.5,3.5,1.9c-0.8,3.4-1.9,15.7,4.1,24.4c1.7,2.5,7.7,11.8,8.3,28.9c22.4-30.8,12-49.9,7.1-57.2
		c-17.2-25.5-9.8-41.9-7.8-46.1c1.3-2.9,4.3-3.4,4.9-0.5c0.6,3-0.7,22.3,14.8,40c4.7,6.3,3.9,13.9,4.5,17.3
		c28.1-56.1-2.6-107.3-14.6-124l0,0c-1.6-2.5-3.8-5.5-7.6-10.7c12.2-10,18.6-23.8,11.7-30.4c-6.6-6.4-21.4-0.5-32,6.3
		c-2.4-2.3-4.6-4-6.5-5c-1-0.8,1.1,0.4-1-0.8c0,0,11.8-15.9,0.9-21.3c-12.4-6.2-26.6,9.8-26.6,9.8c-19.3-5.2-46.5-6.1-75,12.7
		c-6.1,4.3-11.6,5.7-14.8,6.9c-2.1,0.7-7.3,3.6-7.4,11.9c0.2,1.6,0.5,2.5,2.7,2c7.1-2,12.3-5.7,17-7.3c4-1.8,8.3,0.9,3.5,4.1
		c-6.1,3.6-12.3,7.2-15.4,11.2c-1.8,2.1-8.8,11,1.7,24.4c3.1-5,13.4-17.3,28.2-15.4c10.8,1,23.2,10.1,27.3,24.9
		c-22-4.8-33.5-5.9-54.7-0.3c-16.5,4.3-29.6,3.6-45.7-4.6c3.4,9.7,17.6,31.2,52.4,16.1c24.7-10.7,49.5,0.5,49.5,0.5
		c0,1.4-0.1,2.9-0.3,4.3c-1.3,11.9-13.6,25.8-30,18.7c-5.7-2.9-9.5-6.8-12.6-17.6c-3.3,2-8.5,8.7-4.4,16.8c0.7,1.9,0.3,3.1-1.5,4.5
		c-1.9,1.2-2.9,3.8-1.4,6.6c12.6,22.6,55.2,12.4,62.6-20.1c0.5-1.8,2.8-2,2.7,1.1c-1,42-49.9,63.1-83.9,26.9
		c-4.1-4-7.8-4.2-13.4-2.8c-6.1,1.8-25.2,5.9-38.1,3.6C318.5,163.8,319.1,185.4,351.9,193.4z M429.1,58.7
		c-1.5-5.9-5.9-13.7-9.7-17.1c16.8-7.4,37.1-4.1,41.3-0.6C444.3,44.5,434.7,51.9,429.1,58.7z"/>
</g>
</svg>
